<svg width="32" height="32" viewBox="0 0 32 32" fill="none" xmlns="http://www.w3.org/2000/svg">
  <defs>
    <linearGradient id="faviconGradient" x1="0%" y1="0%" x2="100%" y2="100%">
      <stop offset="0%" stop-color="#a855f7"/>
      <stop offset="50%" stop-color="#e879f9"/>
      <stop offset="100%" stop-color="#6366f1"/>
    </linearGradient>
    <linearGradient id="shine" x1="0%" y1="0%" x2="100%" y2="100%">
      <stop offset="0%" stop-color="white" stop-opacity="0.4"/>
      <stop offset="50%" stop-color="white" stop-opacity="0.05"/>
      <stop offset="100%" stop-color="transparent"/>
    </linearGradient>
  </defs>
  
  <!-- Main container -->
  <rect width="32" height="32" rx="8" fill="url(#faviconGradient)"/>
  
  <!-- Glossy shine effect -->
  <rect width="32" height="32" rx="8" fill="url(#shine)"/>
  
  <!-- Checkmark paths -->
  <path d="M12 16L15 19L24 10" stroke="white" stroke-width="2.5" stroke-linecap="round" stroke-linejoin="round"/>
  <path d="M23 16V22C23 22.5304 22.7893 23.0391 22.4142 23.4142C22.0391 23.7893 21.5304 24 21 24H11C10.4696 24 9.96086 23.7893 9.58579 23.4142C9.21071 23.0391 9 22.5304 9 22V12C9 11.4696 9.21071 10.9609 9.58579 10.5858C9.96086 10.2107 10.4696 10 11 10H19" stroke="white" stroke-width="2.5" stroke-linecap="round" stroke-linejoin="round"/>
</svg>